<?xml version="1.0" encoding="utf-8"?>
<!-- Generator: Adobe Illustrator 28.0.0, SVG Export Plug-In . SVG Version: 6.00 Build 0)  -->
<svg version="1.1" id="Layer_1" xmlns="http://www.w3.org/2000/svg" xmlns:xlink="http://www.w3.org/1999/xlink" x="0px" y="0px"
	 viewBox="0 0 1600 574" style="enable-background:new 0 0 1600 574;" xml:space="preserve">
<style type="text/css">
	.st0{fill:#181818;}
</style>
<g>
	<path class="st0" d="M313.5,165.5l-76.7,216.3h-65.9L94.1,165.5h56.1l53.6,163.3l53.9-163.3H313.5z"/>
	<path class="st0" d="M339.2,183.8c-5.9-5.4-8.8-12.2-8.8-20.2c0-8.2,2.9-15,8.8-20.5c5.9-5.4,13.4-8.2,22.6-8.2
		c9,0,16.5,2.7,22.3,8.2c5.9,5.4,8.8,12.3,8.8,20.5c0,8-2.9,14.7-8.8,20.2c-5.9,5.4-13.3,8.2-22.3,8.2
		C352.6,192,345.1,189.3,339.2,183.8z M388,209.9v171.9h-52.7V209.9H388z"/>
	<path class="st0" d="M456.1,376.5c-11.7-5.1-20.9-12.2-27.7-21.1s-10.6-18.9-11.4-30h52.1c0.6,6,3.4,10.8,8.3,14.5
		c4.9,3.7,11,5.5,18.2,5.5c6.6,0,11.7-1.3,15.3-3.9c3.6-2.6,5.4-5.9,5.4-10c0-4.9-2.6-8.6-7.7-10.9c-5.1-2.4-13.5-5-25-7.9
		c-12.3-2.9-22.6-5.9-30.8-9.1c-8.2-3.2-15.3-8.2-21.3-15.1c-6-6.9-8.9-16.2-8.9-27.9c0-9.9,2.7-18.8,8.2-27
		c5.4-8.1,13.4-14.5,24-19.3c10.6-4.7,23.2-7.1,37.7-7.1c21.6,0,38.6,5.3,51,16c12.4,10.7,19.6,24.9,21.4,42.5h-48.7
		c-0.8-6-3.4-10.7-7.9-14.2c-4.4-3.5-10.2-5.2-17.4-5.2c-6.2,0-10.9,1.2-14.2,3.5c-3.3,2.4-4.9,5.6-4.9,9.7c0,4.9,2.6,8.6,7.9,11.1
		s13.4,4.9,24.5,7.4c12.7,3.3,23.1,6.5,31.1,9.7c8,3.2,15,8.3,21.1,15.4c6.1,7.1,9.2,16.6,9.4,28.5c0,10.1-2.8,19.1-8.5,27
		c-5.7,7.9-13.8,14.1-24.3,18.6c-10.6,4.5-22.9,6.8-36.8,6.8C481.2,384.2,467.8,381.7,456.1,376.5z"/>
	<path class="st0" d="M602,183.8c-5.9-5.4-8.8-12.2-8.8-20.2c0-8.2,2.9-15,8.8-20.5c5.9-5.4,13.4-8.2,22.6-8.2
		c9,0,16.5,2.7,22.3,8.2c5.9,5.4,8.8,12.3,8.8,20.5c0,8-2.9,14.7-8.8,20.2c-5.9,5.4-13.3,8.2-22.3,8.2
		C615.4,192,607.9,189.3,602,183.8z M650.8,209.9v171.9h-52.7V209.9H650.8z"/>
	<path class="st0" d="M721.8,373.4c-13.5-7.2-24-17.5-31.7-30.8c-7.7-13.3-11.6-29-11.6-46.8c0-17.7,3.9-33.2,11.7-46.7
		c7.8-13.5,18.5-23.8,32-31c13.6-7.2,28.8-10.8,45.6-10.8c16.8,0,32,3.6,45.6,10.8c13.6,7.2,24.2,17.5,32,31
		c7.8,13.5,11.7,29,11.7,46.7c0,17.7-4,33.2-11.9,46.7c-7.9,13.5-18.7,23.8-32.3,31c-13.7,7.2-28.9,10.8-45.7,10.8
		C750.4,384.2,735.3,380.6,721.8,373.4z M793,327.5c7.1-7.4,10.6-18,10.6-31.7c0-13.8-3.4-24.3-10.3-31.7
		c-6.9-7.4-15.4-11.1-25.4-11.1c-10.3,0-18.8,3.6-25.6,10.9c-6.8,7.3-10.2,17.9-10.2,31.9c0,13.8,3.3,24.3,10,31.7
		c6.7,7.4,15,11.1,25.1,11.1C777.4,338.6,785.9,334.9,793,327.5z"/>
	<path class="st0" d="M1038.2,227.6c12,13,18,31,18,53.8v100.4h-52.4v-93.3c0-11.5-3-20.4-8.9-26.8c-6-6.4-14-9.6-24-9.6
		c-10.1,0-18.1,3.2-24,9.6c-6,6.4-8.9,15.3-8.9,26.8v93.3h-52.7V209.9H938v22.8c5.3-7.6,12.5-13.6,21.6-18c9-4.4,19.2-6.6,30.5-6.6
		C1010.2,208,1026.2,214.5,1038.2,227.6z"/>
	<path class="st0" d="M1262.7,209.9v171.9H1210v-23.4c-5.3,7.6-12.6,13.7-21.7,18.3c-9.1,4.6-19.3,6.9-30.3,6.9
		c-13.1,0-24.8-2.9-34.8-8.8c-10.1-5.9-17.9-14.3-23.4-25.4c-5.5-11.1-8.3-24.1-8.3-39.1V209.9h52.4v93.3c0,11.5,3,20.4,8.9,26.8
		c6,6.4,14,9.6,24,9.6c10.3,0,18.4-3.2,24.3-9.6c6-6.4,8.9-15.3,8.9-26.8v-93.3H1262.7z"/>
	<path class="st0" d="M1374.5,214.8c9-4.9,19.6-7.4,31.7-7.4c14.2,0,27,3.6,38.5,10.8c11.5,7.2,20.6,17.5,27.3,30.8
		c6.7,13.4,10,28.9,10,46.5c0,17.7-3.3,33.2-10,46.7c-6.7,13.5-15.8,23.8-27.3,31.1c-11.5,7.3-24.3,10.9-38.5,10.9
		c-11.9,0-22.4-2.5-31.6-7.4c-9.1-4.9-16.3-11.3-21.4-19.1v106h-52.7V209.9h52.7v24.3C1358.4,226.2,1365.5,219.7,1374.5,214.8z
		 M1417.5,264.5c-7.3-7.5-16.3-11.2-27-11.2c-10.5,0-19.4,3.8-26.6,11.4c-7.3,7.6-10.9,18-10.9,31.1c0,13.1,3.6,23.5,10.9,31.1
		c7.3,7.6,16.2,11.4,26.6,11.4s19.4-3.9,26.8-11.6c7.4-7.7,11.1-18.1,11.1-31.3C1428.4,282.4,1424.8,272,1417.5,264.5z"/>
	<path class="st0" d="M1511.8,376.1c-5.9-5.4-8.8-12.2-8.8-20.2c0-8.2,2.9-15.1,8.8-20.6s13.4-8.3,22.6-8.3c9,0,16.5,2.8,22.3,8.3
		s8.8,12.4,8.8,20.6c0,8-2.9,14.7-8.8,20.2c-5.9,5.4-13.3,8.2-22.3,8.2C1525.2,384.2,1517.6,381.5,1511.8,376.1z"/>
</g>
</svg>
