<?xml version="1.0" encoding="utf-8"?>
<!-- Generator: Adobe Illustrator 28.0.0, SVG Export Plug-In . SVG Version: 6.00 Build 0)  -->
<svg version="1.1" id="Layer_1" xmlns="http://www.w3.org/2000/svg" xmlns:xlink="http://www.w3.org/1999/xlink" x="0px" y="0px"
	 viewBox="0 0 1600 574" style="enable-background:new 0 0 1600 574;" xml:space="preserve">
<style type="text/css">
	.st0{fill:#FFFFFF;}
</style>
<g>
	<path class="st0" d="M46.5,161h44.2c19.7,62.5,39.3,125,59,187.4c9.8-31.5,19.7-63,29.7-94.5c9.7-30.9,19.5-61.9,29.3-93h44.2
		l-81.2,238.9h-44.2c-13.4-39.6-26.8-79.1-40.2-118.6C73.8,241.3,60.1,201.2,46.5,161z"/>
	<path class="st0" d="M263.6,80.7h40.6v40.6h-40.6V80.7z M263.6,161.7h40.6v238.5h-40.6V161.7z"/>
	<path class="st0" d="M405.7,161.9l5.8-0.2c6,0,12.4,0.4,19.1,1.1c6.8,0.7,14,2.6,21.7,5.6c14.1,5.8,24.3,13.3,30.6,22.4
		c3.4,4.8,6.2,10.3,8.2,16.5c2.1,6.1,3.8,12.4,5.2,18.8l-38.9,5.3c-2-9.8-6.9-18.8-14.8-26.9c-3.7-3.6-8.5-6.1-14.3-7.5
		c-5.8-1.4-12.5-2.1-20.1-2.1c-17.5,0-30,2.8-37.4,8.5c-6.8,5.8-10.3,12.2-10.3,19c0,1.3,0.4,4.3,1.3,9.1c0.9,4.8,6.5,9.8,16.9,15.1
		c11.7,4.4,24.6,8.3,38.9,11.5c15.5,3.6,30.4,8,44.5,13.4c14.1,5.3,25.2,13.1,33.3,23.4c6.3,9,9.4,20.1,9.4,33.3
		c-0.2,4.4-1.3,10.2-3.4,17.4c-2.1,7.2-4.8,13.6-8.1,19.1c-2.8,4.8-7.1,9.7-12.7,14.5c-5.6,4.8-12.2,8.8-19.8,12
		c-6.3,2.7-13.6,5-22.1,6.7c-8.5,1.8-17.1,2.7-26,2.7H411c-9.1,0-19.9-1.1-32.5-3.4c-12.5-2.3-23.9-7.3-34-15.2
		c-15.4-12.5-25.3-30.8-29.7-54.9l39.3-6.2c0.8,5.7,2.7,11.6,5.4,17.7c2.8,6.1,6.8,11.8,12.1,17.1c4.6,4.3,10.3,7.3,17.2,9.2
		c6.9,1.9,14.8,2.8,23.6,2.8c17.5,0,30.5-3.6,38.9-10.7c8.4-7.1,12.6-15.4,12.6-24.8c0-8.6-3.7-15.2-11.1-20.1
		c-5.1-3.4-18.2-7.8-39.1-13c-1.4-0.3-2.8-0.6-4.3-1.1c-8.7-2.1-17.7-4.6-27.1-7.4c-9.4-2.8-18.6-6.1-27.6-9.9
		c-10.1-4.7-18.1-11.7-24-20.9c-5.9-9.3-9.1-19.9-9.5-31.8c0.3-10,2.6-19.6,7.1-28.7c4.4-9.2,10.8-16.9,19.2-23.2
		c8.3-5.8,17.3-9.8,27.1-11.8c8.1-1.7,16.5-2.6,25.2-2.6C401.9,161.7,403.9,161.7,405.7,161.9z"/>
	<path class="st0" d="M515.5,80.7h40.6v40.6h-40.6V80.7z M515.5,161.7h40.6v238.5h-40.6V161.7z"/>
	<path class="st0" d="M686.1,161.7c21.8,0,41.7,5.4,59.8,16.1c18.1,10.8,32.5,25.2,43.3,43.3c10.8,18.1,16.1,38,16.1,59.8
		c0,21.9-5.4,41.9-16.1,59.9c-10.8,18-25.2,32.4-43.3,43.2c-18.1,10.8-38,16.1-59.8,16.1c-21.9,0-41.9-5.4-59.9-16.1
		c-18-10.8-32.4-25.1-43.2-43.2c-10.8-18-16.1-38-16.1-59.9c0-21.8,5.4-41.7,16.1-59.8c10.8-18.1,25.2-32.5,43.2-43.3
		C644.2,167,664.1,161.7,686.1,161.7z M686.1,202.3c-14.5,0-27.7,3.5-39.6,10.6c-11.9,7.1-21.4,16.5-28.4,28.4
		c-7.1,11.9-10.6,25.1-10.6,39.6c0,14.7,3.5,28,10.6,39.9c7.1,11.9,16.5,21.4,28.4,28.4c11.9,7.1,25.1,10.6,39.6,10.6
		c14.5,0,27.7-3.5,39.7-10.6c11.9-7.1,21.4-16.5,28.4-28.4c7.1-11.9,10.6-25.2,10.6-39.9c0-14.5-3.5-27.7-10.6-39.6
		c-7.1-11.9-16.5-21.4-28.4-28.4C713.8,205.8,700.6,202.3,686.1,202.3z"/>
	<path class="st0" d="M816,161.7h10.7c16.5,0,29.9,13.4,29.9,29.9v0c10.5-9.4,22.5-16.7,35.9-22c13.4-5.3,27.6-7.9,42.7-7.9
		c21.8,0,41.7,5.4,59.8,16.1c18.1,10.8,32.5,25.2,43.3,43.3c10.8,18.1,16.1,38,16.1,59.8v119.2h-40.6V280.5
		c-0.1-14.7-3.7-27.9-10.8-39.6s-16.5-21.1-28.3-28.1c-11.8-7-25-10.5-39.5-10.5c-14.5,0-27.7,3.5-39.6,10.6
		c-11.9,7.1-21.4,16.5-28.4,28.4c-7.1,11.9-10.6,25.1-10.6,39.6v119.2H816V161.7z"/>
	<path class="st0" d="M1303.7,400.2H1293c-16.5,0-29.9-13.4-29.9-29.9v0c-10.5,9.4-22.5,16.7-35.9,22c-13.4,5.3-27.6,7.9-42.7,7.9
		c-21.9,0-41.9-5.4-59.9-16.1c-18-10.8-32.3-25.1-43-43c-10.6-17.9-16.1-37.9-16.4-60.2V161.7h40.6v119.7
		c0.1,14.7,3.7,27.9,10.7,39.6c7,11.8,16.4,21.2,28.3,28.2c11.9,7.1,25.1,10.6,39.6,10.6s27.7-3.5,39.7-10.6
		c11.9-7.1,21.3-16.5,28.3-28.3c7-11.8,10.5-25.1,10.7-40V161.7h40.6V400.2z"/>
	<path class="st0" d="M1433.6,161.7c21.8,0,41.7,5.4,59.8,16.1c18.1,10.8,32.5,25.2,43.3,43.3c10.8,18.1,16.1,38,16.1,59.8
		c0,21.9-5.4,41.9-16.1,59.9c-10.8,18-25.2,32.4-43.3,43.2c-18.1,10.8-38,16.1-59.8,16.1c-15.1,0-29.3-2.6-42.7-7.9
		c-13.4-5.3-25.4-12.6-35.9-22v110.9h-40.6V280.7c0.3-22.1,5.8-42.1,16.5-59.9c10.7-17.9,25-32.2,43.1-43
		C1391.9,167,1411.8,161.7,1433.6,161.7z M1433.6,202.3c-14.5,0-27.7,3.5-39.6,10.6c-11.9,7.1-21.4,16.5-28.4,28.4
		c-7.1,11.9-10.6,25.1-10.6,39.6c0,14.7,3.5,28,10.6,39.9c7.1,11.9,16.5,21.4,28.4,28.4c11.9,7.1,25.1,10.6,39.6,10.6
		s27.7-3.5,39.7-10.6c11.9-7.1,21.4-16.5,28.4-28.4c7.1-11.9,10.6-25.2,10.6-39.9c0-14.5-3.5-27.7-10.6-39.6
		c-7.1-11.9-16.5-21.4-28.4-28.4C1461.3,205.8,1448.1,202.3,1433.6,202.3z"/>
	<path class="st0" d="M1538,364.8h40.6v40.4H1538V364.8z"/>
</g>
</svg>
