<?xml version="1.0" encoding="utf-8"?>
<!-- Generator: Adobe Illustrator 28.0.0, SVG Export Plug-In . SVG Version: 6.00 Build 0)  -->
<svg version="1.1" width="150" id="Layer_1" xmlns="http://www.w3.org/2000/svg" xmlns:xlink="http://www.w3.org/1999/xlink" x="0px" y="0px"
	 viewBox="0 0 1600 574" style="enable-background:new 0 0 1600 574;" xml:space="preserve">
<style type="text/css">
	.st0{fill:#FFFFFF;}
</style>
<g>
	<path class="st0" d="M228.5,338.2L272.7,204h47L255,378.9h-53.7L137,204h47.3L228.5,338.2z"/>
	<path class="st0" d="M347.7,175.8c-5.2-4.9-7.7-11.1-7.7-18.5c0-7.4,2.6-13.5,7.7-18.5c5.2-4.9,11.6-7.4,19.4-7.4
		c7.8,0,14.3,2.5,19.4,7.4c5.2,4.9,7.7,11.1,7.7,18.5c0,7.4-2.6,13.5-7.7,18.5c-5.2,4.9-11.6,7.4-19.4,7.4
		C359.3,183.2,352.8,180.7,347.7,175.8z M388.9,204v174.9h-44.2V204H388.9z"/>
	<path class="st0" d="M460.8,374c-11.4-5.2-20.4-12.2-27-21c-6.6-8.8-10.3-18.6-10.9-29.4h44.5c0.8,6.7,4.2,12.3,9.9,16.7
		c5.8,4.4,13,6.6,21.6,6.6c8.4,0,15-1.7,19.7-5.1c4.7-3.4,7.1-7.7,7.1-12.9c0-5.7-2.9-9.9-8.7-12.8c-5.8-2.8-15-5.9-27.6-9.3
		c-13.1-3.2-23.7-6.4-32-9.8c-8.3-3.4-15.5-8.5-21.5-15.5c-6-6.9-9-16.3-9-28.1c0-9.7,2.8-18.5,8.4-26.5c5.6-8,13.6-14.3,24-18.9
		c10.4-4.6,22.7-6.9,36.8-6.9c20.8,0,37.5,5.2,49.9,15.6c12.4,10.4,19.3,24.5,20.5,42.1h-42.3c-0.6-6.9-3.5-12.5-8.7-16.6
		c-5.2-4.1-12-6.2-20.7-6.2c-8,0-14.2,1.5-18.5,4.4c-4.3,2.9-6.5,7.1-6.5,12.3c0,5.9,2.9,10.4,8.8,13.4c5.9,3.1,15,6.2,27.5,9.3
		c12.6,3.2,23,6.4,31.3,9.8c8.2,3.4,15.3,8.6,21.3,15.6c6,7.1,9.1,16.4,9.3,27.9c0,10.1-2.8,19.2-8.4,27.1c-5.6,8-13.6,14.3-24,18.8
		c-10.4,4.5-22.6,6.8-36.5,6.8C485,381.8,472.2,379.2,460.8,374z"/>
	<path class="st0" d="M607.5,175.8c-5.2-4.9-7.7-11.1-7.7-18.5c0-7.4,2.6-13.5,7.7-18.5c5.2-4.9,11.6-7.4,19.4-7.4
		c7.8,0,14.3,2.5,19.4,7.4c5.2,4.9,7.7,11.1,7.7,18.5c0,7.4-2.6,13.5-7.7,18.5c-5.2,4.9-11.6,7.4-19.4,7.4
		C619.1,183.2,612.6,180.7,607.5,175.8z M648.7,204v174.9h-44.2V204H648.7z"/>
	<path class="st0" d="M724.4,370.6c-13.5-7.5-24-18-31.7-31.7c-7.7-13.7-11.5-29.5-11.5-47.3c0-17.9,3.9-33.7,11.8-47.4
		c7.9-13.7,18.7-24.3,32.4-31.7c13.7-7.5,28.9-11.2,45.8-11.2c16.8,0,32.1,3.7,45.8,11.2c13.7,7.5,24.5,18,32.4,31.7
		c7.9,13.7,11.8,29.5,11.8,47.4c0,17.9-4.1,33.7-12.2,47.3c-8.1,13.7-19,24.3-32.8,31.7c-13.8,7.5-29.2,11.2-46.2,11.2
		C753,381.8,737.9,378,724.4,370.6z M792.4,337.4c7-3.9,12.7-9.7,16.9-17.5c4.2-7.8,6.3-17.3,6.3-28.4c0-16.6-4.4-29.4-13.1-38.4
		c-8.7-8.9-19.4-13.4-32-13.4c-12.6,0-23.2,4.5-31.7,13.4c-8.5,8.9-12.8,21.7-12.8,38.4c0,16.6,4.2,29.4,12.5,38.4
		c8.3,8.9,18.8,13.4,31.4,13.4C777.9,343.3,785.4,341.3,792.4,337.4z"/>
	<path class="st0" d="M1041,221.2c12.8,13.2,19.3,31.5,19.3,55.1v102.6h-44.2v-96.6c0-13.9-3.5-24.6-10.4-32
		c-6.9-7.5-16.4-11.2-28.4-11.2c-12.2,0-21.8,3.7-28.9,11.2c-7.1,7.5-10.6,18.2-10.6,32v96.6h-44.2V204h44.2v21.8
		c5.9-7.6,13.4-13.5,22.6-17.8c9.2-4.3,19.2-6.5,30.1-6.5C1011.4,201.5,1028.2,208.1,1041,221.2z"/>
	<path class="st0" d="M1267.4,204v174.9h-44.5v-22.1c-5.7,7.6-13.1,13.5-22.3,17.8c-9.2,4.3-19.1,6.5-29.8,6.5
		c-13.7,0-25.8-2.9-36.3-8.7c-10.5-5.8-18.8-14.3-24.8-25.6c-6-11.3-9-24.7-9-40.2V204h44.2v96.3c0,13.9,3.5,24.6,10.4,32
		c6.9,7.5,16.4,11.2,28.4,11.2c12.2,0,21.8-3.7,28.7-11.2c6.9-7.5,10.4-18.2,10.4-32V204H1267.4z"/>
	<path class="st0" d="M1378.6,209.3c10-5.4,21.4-8,34.2-8c14.9,0,28.5,3.7,40.6,11c12.1,7.4,21.7,17.8,28.7,31.4
		c7,13.6,10.6,29.3,10.6,47.2c0,17.9-3.5,33.7-10.6,47.5c-7.1,13.8-16.6,24.5-28.7,32c-12.1,7.6-25.6,11.4-40.6,11.4
		c-12.8,0-24.1-2.6-33.9-7.9c-9.8-5.3-17.7-11.9-23.8-19.9v108.3h-44.2V204h44.2v25.3C1360.8,221.3,1368.6,214.6,1378.6,209.3z
		 M1441.1,263.5c-4.3-7.7-10-13.5-17-17.5c-7.1-4-14.7-6-22.9-6c-8,0-15.5,2.1-22.6,6.2c-7.1,4.1-12.7,10.1-17,17.8
		c-4.3,7.8-6.5,16.9-6.5,27.5c0,10.5,2.2,19.7,6.5,27.5c4.3,7.8,10,13.7,17,17.8c7,4.1,14.6,6.2,22.6,6.2c8.2,0,15.8-2.1,22.9-6.3
		c7-4.2,12.7-10.2,17-18c4.3-7.8,6.5-17,6.5-27.8C1447.6,280.3,1445.4,271.2,1441.1,263.5z"/>
</g>
</svg>
